<svg width="100%" height="100%" viewBox="0 0 52 52" version="1.1" xmlns="http://www.w3.org/2000/svg" xmlns:xlink="http://www.w3.org/1999/xlink" xml:space="preserve" xmlns:serif="http://www.serif.com/" style="fill-rule:evenodd;clip-rule:evenodd;stroke-linejoin:round;stroke-miterlimit:2;">
    <g transform="matrix(0.6,0,0,0.6,1.6,1.6)">
        <path d="M24,9L24,19C24,21.76 21.76,24 19,24L9,24C6.24,24 4,21.76 4,19L4,9C4,6.24 6.24,4 9,4L19,4C21.76,4 24,6.24 24,9Z" style="fill:white;"/>
    </g>
    <g transform="matrix(0.6,0,0,0.6,1.6,17.6)">
        <path d="M24,9L24,19C24,21.76 21.76,24 19,24L9,24C6.24,24 4,21.76 4,19L4,9C4,6.24 6.24,4 9,4L19,4C21.76,4 24,6.24 24,9Z" style="fill:white;"/>
    </g>
    <g transform="matrix(0.6,0,0,0.6,1.6,33.6)">
        <path d="M24,9L24,19C24,21.76 21.76,24 19,24L9,24C6.24,24 4,21.76 4,19L4,9C4,6.24 6.24,4 9,4L19,4C21.76,4 24,6.24 24,9Z" style="fill:white;"/>
    </g>
    <g transform="matrix(0.6,0,0,0.6,17.6,1.6)">
        <path d="M24,9L24,19C24,21.76 21.76,24 19,24L9,24C6.24,24 4,21.76 4,19L4,9C4,6.24 6.24,4 9,4L19,4C21.76,4 24,6.24 24,9Z" style="fill:white;"/>
    </g>
    <g transform="matrix(0.6,0,0,0.6,17.6,17.6)">
        <path d="M24,9L24,19C24,21.76 21.76,24 19,24L9,24C6.24,24 4,21.76 4,19L4,9C4,6.24 6.24,4 9,4L19,4C21.76,4 24,6.24 24,9Z" style="fill:white;"/>
    </g>
    <g transform="matrix(0.6,0,0,0.6,17.6,33.6)">
        <path d="M24,9L24,19C24,21.76 21.76,24 19,24L9,24C6.24,24 4,21.76 4,19L4,9C4,6.24 6.24,4 9,4L19,4C21.76,4 24,6.24 24,9Z" style="fill:white;"/>
    </g>
    <g transform="matrix(0.6,0,0,0.6,33.6,1.6)">
        <path d="M24,9L24,19C24,21.76 21.76,24 19,24L9,24C6.24,24 4,21.76 4,19L4,9C4,6.24 6.24,4 9,4L19,4C21.76,4 24,6.24 24,9Z" style="fill:white;"/>
    </g>
    <g transform="matrix(0.6,0,0,0.6,33.6,17.6)">
        <path d="M24,9L24,19C24,21.76 21.76,24 19,24L9,24C6.24,24 4,21.76 4,19L4,9C4,6.24 6.24,4 9,4L19,4C21.76,4 24,6.24 24,9Z" style="fill:white;"/>
    </g>
    <g transform="matrix(0.6,0,0,0.6,33.6,33.6)">
        <path d="M24,9L24,19C24,21.76 21.76,24 19,24L9,24C6.24,24 4,21.76 4,19L4,9C4,6.24 6.24,4 9,4L19,4C21.76,4 24,6.24 24,9Z" style="fill:white;"/>
    </g>
</svg>
